<mxfile host="app.diagrams.net" modified="2023-05-24T17:18:14.948Z" agent="Mozilla/5.0 (Windows NT 10.0; Win64; x64) AppleWebKit/537.36 (KHTML, like Gecko) Chrome/113.0.0.0 Safari/537.36" etag="kC6XCvj3IStM_L8b-21g" version="21.3.2" type="github">
  <diagram name="Page-1" id="5lxpTZL6Nw-YDCqKbaqC">
    <mxGraphModel dx="2120" dy="1351" grid="1" gridSize="10" guides="1" tooltips="1" connect="1" arrows="1" fold="1" page="1" pageScale="1" pageWidth="850" pageHeight="1100" math="0" shadow="0">
      <root>
        <mxCell id="0" />
        <mxCell id="1" parent="0" />
        <mxCell id="-zIho2rLV5rV_2pqszb2-2" value="Pelanggan" style="rounded=0;whiteSpace=wrap;html=1;" vertex="1" parent="1">
          <mxGeometry x="190" y="200" width="120" height="60" as="geometry" />
        </mxCell>
        <mxCell id="-zIho2rLV5rV_2pqszb2-3" value="Film" style="rounded=0;whiteSpace=wrap;html=1;" vertex="1" parent="1">
          <mxGeometry x="530" y="310" width="120" height="60" as="geometry" />
        </mxCell>
        <mxCell id="-zIho2rLV5rV_2pqszb2-4" value="Transaksi" style="rounded=0;whiteSpace=wrap;html=1;" vertex="1" parent="1">
          <mxGeometry x="190" y="670" width="120" height="60" as="geometry" />
        </mxCell>
        <mxCell id="-zIho2rLV5rV_2pqszb2-19" style="edgeStyle=orthogonalEdgeStyle;rounded=0;orthogonalLoop=1;jettySize=auto;html=1;" edge="1" parent="1" source="-zIho2rLV5rV_2pqszb2-5" target="-zIho2rLV5rV_2pqszb2-2">
          <mxGeometry relative="1" as="geometry" />
        </mxCell>
        <mxCell id="-zIho2rLV5rV_2pqszb2-5" value="&lt;b&gt;&lt;u&gt;id_pelanggan&lt;/u&gt;&lt;/b&gt;" style="ellipse;whiteSpace=wrap;html=1;" vertex="1" parent="1">
          <mxGeometry x="30" y="80" width="120" height="80" as="geometry" />
        </mxCell>
        <mxCell id="-zIho2rLV5rV_2pqszb2-20" style="edgeStyle=orthogonalEdgeStyle;rounded=0;orthogonalLoop=1;jettySize=auto;html=1;" edge="1" parent="1" source="-zIho2rLV5rV_2pqszb2-6" target="-zIho2rLV5rV_2pqszb2-2">
          <mxGeometry relative="1" as="geometry" />
        </mxCell>
        <mxCell id="-zIho2rLV5rV_2pqszb2-6" value="nama_pelanggan" style="ellipse;whiteSpace=wrap;html=1;" vertex="1" parent="1">
          <mxGeometry x="30" y="190" width="120" height="80" as="geometry" />
        </mxCell>
        <mxCell id="-zIho2rLV5rV_2pqszb2-21" style="edgeStyle=orthogonalEdgeStyle;rounded=0;orthogonalLoop=1;jettySize=auto;html=1;" edge="1" parent="1" source="-zIho2rLV5rV_2pqszb2-7" target="-zIho2rLV5rV_2pqszb2-2">
          <mxGeometry relative="1" as="geometry" />
        </mxCell>
        <mxCell id="-zIho2rLV5rV_2pqszb2-7" value="alamat_pelanggan" style="ellipse;whiteSpace=wrap;html=1;" vertex="1" parent="1">
          <mxGeometry x="30" y="300" width="120" height="80" as="geometry" />
        </mxCell>
        <mxCell id="-zIho2rLV5rV_2pqszb2-27" style="edgeStyle=orthogonalEdgeStyle;rounded=0;orthogonalLoop=1;jettySize=auto;html=1;" edge="1" parent="1" source="-zIho2rLV5rV_2pqszb2-9" target="-zIho2rLV5rV_2pqszb2-3">
          <mxGeometry relative="1" as="geometry" />
        </mxCell>
        <mxCell id="-zIho2rLV5rV_2pqszb2-9" value="&lt;b&gt;&lt;u&gt;id_film&lt;/u&gt;&lt;/b&gt;" style="ellipse;whiteSpace=wrap;html=1;" vertex="1" parent="1">
          <mxGeometry x="700" y="80" width="120" height="80" as="geometry" />
        </mxCell>
        <mxCell id="-zIho2rLV5rV_2pqszb2-28" style="edgeStyle=orthogonalEdgeStyle;rounded=0;orthogonalLoop=1;jettySize=auto;html=1;" edge="1" parent="1" source="-zIho2rLV5rV_2pqszb2-10" target="-zIho2rLV5rV_2pqszb2-3">
          <mxGeometry relative="1" as="geometry" />
        </mxCell>
        <mxCell id="-zIho2rLV5rV_2pqszb2-10" value="judul_film" style="ellipse;whiteSpace=wrap;html=1;" vertex="1" parent="1">
          <mxGeometry x="700" y="190" width="120" height="80" as="geometry" />
        </mxCell>
        <mxCell id="-zIho2rLV5rV_2pqszb2-32" style="edgeStyle=orthogonalEdgeStyle;rounded=0;orthogonalLoop=1;jettySize=auto;html=1;" edge="1" parent="1" source="-zIho2rLV5rV_2pqszb2-11" target="-zIho2rLV5rV_2pqszb2-3">
          <mxGeometry relative="1" as="geometry" />
        </mxCell>
        <mxCell id="-zIho2rLV5rV_2pqszb2-11" value="tahun_rilis" style="ellipse;whiteSpace=wrap;html=1;" vertex="1" parent="1">
          <mxGeometry x="700" y="300" width="120" height="80" as="geometry" />
        </mxCell>
        <mxCell id="-zIho2rLV5rV_2pqszb2-31" style="edgeStyle=orthogonalEdgeStyle;rounded=0;orthogonalLoop=1;jettySize=auto;html=1;" edge="1" parent="1" source="-zIho2rLV5rV_2pqszb2-12" target="-zIho2rLV5rV_2pqszb2-3">
          <mxGeometry relative="1" as="geometry" />
        </mxCell>
        <mxCell id="-zIho2rLV5rV_2pqszb2-12" value="genre" style="ellipse;whiteSpace=wrap;html=1;" vertex="1" parent="1">
          <mxGeometry x="700" y="520" width="120" height="80" as="geometry" />
        </mxCell>
        <mxCell id="-zIho2rLV5rV_2pqszb2-30" style="edgeStyle=orthogonalEdgeStyle;rounded=0;orthogonalLoop=1;jettySize=auto;html=1;" edge="1" parent="1" source="-zIho2rLV5rV_2pqszb2-13" target="-zIho2rLV5rV_2pqszb2-3">
          <mxGeometry relative="1" as="geometry" />
        </mxCell>
        <mxCell id="-zIho2rLV5rV_2pqszb2-13" value="durasi" style="ellipse;whiteSpace=wrap;html=1;" vertex="1" parent="1">
          <mxGeometry x="700" y="410" width="120" height="80" as="geometry" />
        </mxCell>
        <mxCell id="-zIho2rLV5rV_2pqszb2-22" style="edgeStyle=orthogonalEdgeStyle;rounded=0;orthogonalLoop=1;jettySize=auto;html=1;" edge="1" parent="1" source="-zIho2rLV5rV_2pqszb2-14" target="-zIho2rLV5rV_2pqszb2-4">
          <mxGeometry relative="1" as="geometry" />
        </mxCell>
        <mxCell id="-zIho2rLV5rV_2pqszb2-14" value="&lt;b&gt;&lt;u&gt;id_transaksi&lt;/u&gt;&lt;/b&gt;" style="ellipse;whiteSpace=wrap;html=1;" vertex="1" parent="1">
          <mxGeometry x="30" y="440" width="120" height="80" as="geometry" />
        </mxCell>
        <mxCell id="-zIho2rLV5rV_2pqszb2-23" style="edgeStyle=orthogonalEdgeStyle;rounded=0;orthogonalLoop=1;jettySize=auto;html=1;" edge="1" parent="1" source="-zIho2rLV5rV_2pqszb2-15" target="-zIho2rLV5rV_2pqszb2-4">
          <mxGeometry relative="1" as="geometry" />
        </mxCell>
        <mxCell id="-zIho2rLV5rV_2pqszb2-15" value="id_pelanggan" style="ellipse;whiteSpace=wrap;html=1;" vertex="1" parent="1">
          <mxGeometry x="30" y="550" width="120" height="80" as="geometry" />
        </mxCell>
        <mxCell id="-zIho2rLV5rV_2pqszb2-26" style="edgeStyle=orthogonalEdgeStyle;rounded=0;orthogonalLoop=1;jettySize=auto;html=1;" edge="1" parent="1" source="-zIho2rLV5rV_2pqszb2-16" target="-zIho2rLV5rV_2pqszb2-4">
          <mxGeometry relative="1" as="geometry" />
        </mxCell>
        <mxCell id="-zIho2rLV5rV_2pqszb2-16" value="id_film" style="ellipse;whiteSpace=wrap;html=1;" vertex="1" parent="1">
          <mxGeometry x="30" y="660" width="120" height="80" as="geometry" />
        </mxCell>
        <mxCell id="-zIho2rLV5rV_2pqszb2-24" style="edgeStyle=orthogonalEdgeStyle;rounded=0;orthogonalLoop=1;jettySize=auto;html=1;" edge="1" parent="1" source="-zIho2rLV5rV_2pqszb2-17" target="-zIho2rLV5rV_2pqszb2-4">
          <mxGeometry relative="1" as="geometry" />
        </mxCell>
        <mxCell id="-zIho2rLV5rV_2pqszb2-17" value="jumlah_tiket" style="ellipse;whiteSpace=wrap;html=1;" vertex="1" parent="1">
          <mxGeometry x="30" y="880" width="120" height="80" as="geometry" />
        </mxCell>
        <mxCell id="-zIho2rLV5rV_2pqszb2-25" style="edgeStyle=orthogonalEdgeStyle;rounded=0;orthogonalLoop=1;jettySize=auto;html=1;" edge="1" parent="1" source="-zIho2rLV5rV_2pqszb2-18" target="-zIho2rLV5rV_2pqszb2-4">
          <mxGeometry relative="1" as="geometry">
            <mxPoint x="240" y="720" as="targetPoint" />
          </mxGeometry>
        </mxCell>
        <mxCell id="-zIho2rLV5rV_2pqszb2-18" value="tgl_transaksi" style="ellipse;whiteSpace=wrap;html=1;" vertex="1" parent="1">
          <mxGeometry x="30" y="770" width="120" height="80" as="geometry" />
        </mxCell>
        <mxCell id="-zIho2rLV5rV_2pqszb2-33" value="Normalisai ERD bioskop" style="rounded=1;whiteSpace=wrap;html=1;" vertex="1" parent="1">
          <mxGeometry x="365" y="10" width="120" height="60" as="geometry" />
        </mxCell>
        <mxCell id="-zIho2rLV5rV_2pqszb2-34" value="Normalisai ERD perpustakaan" style="rounded=1;whiteSpace=wrap;html=1;" vertex="1" parent="1">
          <mxGeometry x="1215" y="10" width="120" height="60" as="geometry" />
        </mxCell>
        <mxCell id="-zIho2rLV5rV_2pqszb2-35" value="pengunjung" style="rounded=0;whiteSpace=wrap;html=1;" vertex="1" parent="1">
          <mxGeometry x="1060" y="200" width="120" height="60" as="geometry" />
        </mxCell>
        <mxCell id="-zIho2rLV5rV_2pqszb2-36" value="buku" style="rounded=0;whiteSpace=wrap;html=1;" vertex="1" parent="1">
          <mxGeometry x="1360" y="200" width="120" height="60" as="geometry" />
        </mxCell>
        <mxCell id="-zIho2rLV5rV_2pqszb2-37" value="pinjaman" style="rounded=0;whiteSpace=wrap;html=1;" vertex="1" parent="1">
          <mxGeometry x="1370" y="670" width="120" height="60" as="geometry" />
        </mxCell>
        <mxCell id="-zIho2rLV5rV_2pqszb2-38" value="petugas" style="rounded=0;whiteSpace=wrap;html=1;" vertex="1" parent="1">
          <mxGeometry x="1060" y="530" width="120" height="60" as="geometry" />
        </mxCell>
        <mxCell id="-zIho2rLV5rV_2pqszb2-53" style="edgeStyle=orthogonalEdgeStyle;rounded=0;orthogonalLoop=1;jettySize=auto;html=1;" edge="1" parent="1" source="-zIho2rLV5rV_2pqszb2-39" target="-zIho2rLV5rV_2pqszb2-35">
          <mxGeometry relative="1" as="geometry" />
        </mxCell>
        <mxCell id="-zIho2rLV5rV_2pqszb2-39" value="&lt;u&gt;id_pengunjung&lt;/u&gt;" style="ellipse;whiteSpace=wrap;html=1;fontStyle=1" vertex="1" parent="1">
          <mxGeometry x="900" y="80" width="120" height="80" as="geometry" />
        </mxCell>
        <mxCell id="-zIho2rLV5rV_2pqszb2-54" style="edgeStyle=orthogonalEdgeStyle;rounded=0;orthogonalLoop=1;jettySize=auto;html=1;" edge="1" parent="1" source="-zIho2rLV5rV_2pqszb2-40" target="-zIho2rLV5rV_2pqszb2-35">
          <mxGeometry relative="1" as="geometry" />
        </mxCell>
        <mxCell id="-zIho2rLV5rV_2pqszb2-40" value="nama_pengunjung" style="ellipse;whiteSpace=wrap;html=1;" vertex="1" parent="1">
          <mxGeometry x="900" y="190" width="120" height="80" as="geometry" />
        </mxCell>
        <mxCell id="-zIho2rLV5rV_2pqszb2-55" style="edgeStyle=orthogonalEdgeStyle;rounded=0;orthogonalLoop=1;jettySize=auto;html=1;" edge="1" parent="1" source="-zIho2rLV5rV_2pqszb2-41" target="-zIho2rLV5rV_2pqszb2-35">
          <mxGeometry relative="1" as="geometry" />
        </mxCell>
        <mxCell id="-zIho2rLV5rV_2pqszb2-41" value="alamat_pengunjung" style="ellipse;whiteSpace=wrap;html=1;" vertex="1" parent="1">
          <mxGeometry x="900" y="300" width="120" height="80" as="geometry" />
        </mxCell>
        <mxCell id="-zIho2rLV5rV_2pqszb2-56" style="edgeStyle=orthogonalEdgeStyle;rounded=0;orthogonalLoop=1;jettySize=auto;html=1;" edge="1" parent="1" source="-zIho2rLV5rV_2pqszb2-43" target="-zIho2rLV5rV_2pqszb2-36">
          <mxGeometry relative="1" as="geometry" />
        </mxCell>
        <mxCell id="-zIho2rLV5rV_2pqszb2-43" value="&lt;u&gt;id_buku&lt;/u&gt;" style="ellipse;whiteSpace=wrap;html=1;fontStyle=1" vertex="1" parent="1">
          <mxGeometry x="1530" y="80" width="120" height="80" as="geometry" />
        </mxCell>
        <mxCell id="-zIho2rLV5rV_2pqszb2-57" style="edgeStyle=orthogonalEdgeStyle;rounded=0;orthogonalLoop=1;jettySize=auto;html=1;" edge="1" parent="1" source="-zIho2rLV5rV_2pqszb2-44" target="-zIho2rLV5rV_2pqszb2-36">
          <mxGeometry relative="1" as="geometry" />
        </mxCell>
        <mxCell id="-zIho2rLV5rV_2pqszb2-44" value="judul_buku" style="ellipse;whiteSpace=wrap;html=1;" vertex="1" parent="1">
          <mxGeometry x="1530" y="190" width="120" height="80" as="geometry" />
        </mxCell>
        <mxCell id="-zIho2rLV5rV_2pqszb2-58" style="edgeStyle=orthogonalEdgeStyle;rounded=0;orthogonalLoop=1;jettySize=auto;html=1;" edge="1" parent="1" source="-zIho2rLV5rV_2pqszb2-45" target="-zIho2rLV5rV_2pqszb2-36">
          <mxGeometry relative="1" as="geometry" />
        </mxCell>
        <mxCell id="-zIho2rLV5rV_2pqszb2-45" value="pengarang" style="ellipse;whiteSpace=wrap;html=1;" vertex="1" parent="1">
          <mxGeometry x="1530" y="300" width="120" height="80" as="geometry" />
        </mxCell>
        <mxCell id="-zIho2rLV5rV_2pqszb2-64" style="edgeStyle=orthogonalEdgeStyle;rounded=0;orthogonalLoop=1;jettySize=auto;html=1;" edge="1" parent="1" source="-zIho2rLV5rV_2pqszb2-46" target="-zIho2rLV5rV_2pqszb2-38">
          <mxGeometry relative="1" as="geometry" />
        </mxCell>
        <mxCell id="-zIho2rLV5rV_2pqszb2-46" value="&lt;u&gt;id_petugas&lt;/u&gt;" style="ellipse;whiteSpace=wrap;html=1;fontStyle=1" vertex="1" parent="1">
          <mxGeometry x="900" y="470" width="120" height="80" as="geometry" />
        </mxCell>
        <mxCell id="-zIho2rLV5rV_2pqszb2-65" style="edgeStyle=orthogonalEdgeStyle;rounded=0;orthogonalLoop=1;jettySize=auto;html=1;" edge="1" parent="1" source="-zIho2rLV5rV_2pqszb2-47" target="-zIho2rLV5rV_2pqszb2-38">
          <mxGeometry relative="1" as="geometry" />
        </mxCell>
        <mxCell id="-zIho2rLV5rV_2pqszb2-47" value="nama_petugas" style="ellipse;whiteSpace=wrap;html=1;" vertex="1" parent="1">
          <mxGeometry x="900" y="580" width="120" height="80" as="geometry" />
        </mxCell>
        <mxCell id="-zIho2rLV5rV_2pqszb2-59" style="edgeStyle=orthogonalEdgeStyle;rounded=0;orthogonalLoop=1;jettySize=auto;html=1;" edge="1" parent="1" source="-zIho2rLV5rV_2pqszb2-48" target="-zIho2rLV5rV_2pqszb2-37">
          <mxGeometry relative="1" as="geometry" />
        </mxCell>
        <mxCell id="-zIho2rLV5rV_2pqszb2-48" value="&lt;u&gt;id_pinjaman&lt;/u&gt;" style="ellipse;whiteSpace=wrap;html=1;fontStyle=1" vertex="1" parent="1">
          <mxGeometry x="1530" y="440" width="120" height="80" as="geometry" />
        </mxCell>
        <mxCell id="-zIho2rLV5rV_2pqszb2-60" style="edgeStyle=orthogonalEdgeStyle;rounded=0;orthogonalLoop=1;jettySize=auto;html=1;" edge="1" parent="1" source="-zIho2rLV5rV_2pqszb2-49" target="-zIho2rLV5rV_2pqszb2-37">
          <mxGeometry relative="1" as="geometry" />
        </mxCell>
        <mxCell id="-zIho2rLV5rV_2pqszb2-49" value="id_pengunjung" style="ellipse;whiteSpace=wrap;html=1;" vertex="1" parent="1">
          <mxGeometry x="1530" y="550" width="120" height="80" as="geometry" />
        </mxCell>
        <mxCell id="-zIho2rLV5rV_2pqszb2-61" style="edgeStyle=orthogonalEdgeStyle;rounded=0;orthogonalLoop=1;jettySize=auto;html=1;" edge="1" parent="1" source="-zIho2rLV5rV_2pqszb2-50" target="-zIho2rLV5rV_2pqszb2-37">
          <mxGeometry relative="1" as="geometry" />
        </mxCell>
        <mxCell id="-zIho2rLV5rV_2pqszb2-50" value="id_buku" style="ellipse;whiteSpace=wrap;html=1;" vertex="1" parent="1">
          <mxGeometry x="1530" y="660" width="120" height="80" as="geometry" />
        </mxCell>
        <mxCell id="-zIho2rLV5rV_2pqszb2-62" style="edgeStyle=orthogonalEdgeStyle;rounded=0;orthogonalLoop=1;jettySize=auto;html=1;" edge="1" parent="1" source="-zIho2rLV5rV_2pqszb2-51" target="-zIho2rLV5rV_2pqszb2-37">
          <mxGeometry relative="1" as="geometry" />
        </mxCell>
        <mxCell id="-zIho2rLV5rV_2pqszb2-51" value="tgl_pinjam" style="ellipse;whiteSpace=wrap;html=1;" vertex="1" parent="1">
          <mxGeometry x="1530" y="770" width="120" height="80" as="geometry" />
        </mxCell>
        <mxCell id="-zIho2rLV5rV_2pqszb2-63" style="edgeStyle=orthogonalEdgeStyle;rounded=0;orthogonalLoop=1;jettySize=auto;html=1;" edge="1" parent="1" source="-zIho2rLV5rV_2pqszb2-52" target="-zIho2rLV5rV_2pqszb2-37">
          <mxGeometry relative="1" as="geometry" />
        </mxCell>
        <mxCell id="-zIho2rLV5rV_2pqszb2-52" value="tgl_kembali" style="ellipse;whiteSpace=wrap;html=1;" vertex="1" parent="1">
          <mxGeometry x="1530" y="880" width="120" height="80" as="geometry" />
        </mxCell>
      </root>
    </mxGraphModel>
  </diagram>
</mxfile>
